<?xml version="1.0" encoding="UTF-8"?>
<svg xmlns="http://www.w3.org/2000/svg" xmlns:xlink="http://www.w3.org/1999/xlink" width="461.25pt" height="461.25pt" viewBox="0 0 461.25 461.25" version="1.1">
<g id="surface1">
<path style=" stroke:none;fill-rule:nonzero;fill:rgb(94.921875%,74.804688%,5.099487%);fill-opacity:1;" d="M 3.015625 230.625 C 3.015625 104.917969 104.917969 3.015625 230.625 3.015625 C 356.332031 3.015625 458.238281 104.917969 458.238281 230.625 C 458.238281 356.332031 356.332031 458.234375 230.625 458.234375 C 104.917969 458.234375 3.015625 356.332031 3.015625 230.625 "/>
<path style="fill:none;stroke-width:60.29;stroke-linecap:butt;stroke-linejoin:miter;stroke:rgb(13.719177%,12.156677%,12.547302%);stroke-opacity:1;stroke-miterlimit:3.864;" d="M 30.15625 2306.25 C 30.15625 3563.320313 1049.179688 4582.34375 2306.25 4582.34375 C 3563.320313 4582.34375 4582.382813 3563.320313 4582.382813 2306.25 C 4582.382813 1049.179688 3563.320313 30.15625 2306.25 30.15625 C 1049.179688 30.15625 30.15625 1049.179688 30.15625 2306.25 Z M 30.15625 2306.25 " transform="matrix(0.1,0,0,-0.1,0,461.25)"/>
<path style=" stroke:none;fill-rule:nonzero;fill:rgb(100%,100%,100%);fill-opacity:1;" d="M 64.816406 230.625 C 64.816406 139.050781 139.050781 64.816406 230.625 64.816406 C 322.199219 64.816406 396.433594 139.050781 396.433594 230.625 C 396.433594 322.199219 322.199219 396.433594 230.625 396.433594 C 139.050781 396.433594 64.816406 322.199219 64.816406 230.625 "/>
<path style=" stroke:none;fill-rule:evenodd;fill:rgb(13.719177%,12.156677%,12.547302%);fill-opacity:1;" d="M 50.996094 162.730469 C 55.511719 164.027344 58.640625 166.203125 60.378906 169.261719 C 62.246094 172.46875 62.484375 176.503906 61.089844 181.367188 L 57.457031 194.035156 L 29.007813 185.878906 L 33.132813 171.496094 C 34.386719 167.109375 36.800781 164.210938 40.371094 162.789063 C 43.414063 161.59375 46.957031 161.574219 50.996094 162.730469 M 48.363281 171.464844 C 45.597656 170.671875 43.308594 171.136719 41.492188 172.859375 C 40.695313 173.636719 40.066406 174.820313 39.609375 176.414063 L 38.8125 179.203125 L 52.679688 183.179688 L 53.660156 179.753906 C 54.347656 177.363281 53.992188 175.394531 52.597656 173.84375 C 51.605469 172.78125 50.195313 171.992188 48.363281 171.464844 "/>
<path style=" stroke:none;fill-rule:evenodd;fill:rgb(13.719177%,12.156677%,12.547302%);fill-opacity:1;" d="M 43.066406 141.644531 L 39.726563 149.144531 L 36.203125 147.574219 L 39.542969 140.078125 Z M 71.601563 153.988281 L 67.890625 162.320313 L 41.042969 150.367188 L 44.753906 142.035156 "/>
<path style=" stroke:none;fill-rule:evenodd;fill:rgb(13.719177%,12.156677%,12.547302%);fill-opacity:1;" d="M 78.238281 119.082031 C 80.984375 120.730469 82.78125 123.164063 83.621094 126.378906 C 84.546875 129.933594 83.953125 133.476563 81.832031 137.003906 C 79.453125 140.960938 76.273438 143.355469 72.292969 144.1875 C 68.523438 144.984375 64.699219 144.21875 60.8125 141.882813 C 56.785156 139.464844 54.261719 136.367188 53.242188 132.59375 C 52.234375 128.796875 52.90625 124.945313 55.253906 121.035156 C 59.4375 114.070313 65.089844 112.261719 72.203125 115.601563 L 67.636719 123.203125 C 66.8125 122.808594 65.886719 122.652344 64.863281 122.746094 C 63.414063 122.910156 62.277344 123.675781 61.449219 125.050781 C 60.425781 126.753906 60.40625 128.453125 61.390625 130.140625 C 62.21875 131.605469 63.59375 132.914063 65.511719 134.066406 C 67.429688 135.21875 69.191406 135.828125 70.796875 135.890625 C 72.8125 135.972656 74.339844 135.148438 75.378906 133.417969 C 76.6875 131.238281 76.105469 129.019531 73.625 126.757813 "/>
<path style=" stroke:none;fill-rule:evenodd;fill:rgb(13.719177%,12.156677%,12.547302%);fill-opacity:1;" d="M 106.503906 104.425781 L 91.925781 121.195313 L 69.589844 101.777344 L 75.574219 94.894531 L 92.183594 109.335938 L 100.777344 99.449219 "/>
<path style=" stroke:none;fill-rule:evenodd;fill:rgb(13.719177%,12.156677%,12.547302%);fill-opacity:1;" d="M 129.414063 84.761719 L 110.300781 100.804688 L 91.277344 78.132813 L 110.042969 62.382813 L 114.917969 68.195313 L 103.136719 78.078125 L 105.507813 80.90625 L 116.210938 71.925781 L 120.738281 77.324219 L 110.039063 86.304688 L 112.410156 89.128906 L 124.539063 78.949219 "/>
<path style=" stroke:none;fill-rule:evenodd;fill:rgb(13.719177%,12.156677%,12.547302%);fill-opacity:1;" d="M 154.382813 36.988281 L 147.90625 39.871094 L 146 35.59375 L 152.476563 32.710938 Z M 145.746094 40.832031 L 139.273438 43.714844 L 137.367188 39.4375 L 143.84375 36.554688 Z M 167.042969 52.996094 C 170.246094 60.191406 167.734375 65.617188 159.503906 69.28125 C 151.246094 72.960938 145.519531 71.199219 142.316406 64.003906 L 135.148438 47.910156 L 143.519531 44.183594 L 149.890625 58.496094 C 150.53125 59.9375 151.039063 60.90625 151.414063 61.40625 C 152.136719 62.414063 153.007813 63.011719 154.023438 63.191406 C 154.746094 63.324219 155.613281 63.164063 156.625 62.714844 C 158.339844 61.949219 159.191406 60.769531 159.175781 59.175781 C 159.167969 58.269531 158.734375 56.859375 157.882813 54.941406 L 151.507813 40.625 L 159.878906 36.902344 "/>
<path style=" stroke:none;fill-rule:evenodd;fill:rgb(13.719177%,12.156677%,12.547302%);fill-opacity:1;" d="M 203.367188 54.941406 L 194.722656 56.9375 L 182.242188 43.226563 L 182.160156 43.246094 L 185.796875 58.996094 L 177.394531 60.9375 L 170.738281 32.101563 L 179.824219 30.003906 L 191.789063 43.492188 L 191.871094 43.472656 L 188.308594 28.042969 L 196.710938 26.105469 "/>
<path style=" stroke:none;fill-rule:evenodd;fill:rgb(13.719177%,12.156677%,12.547302%);fill-opacity:1;" d="M 215.398438 22.941406 L 207.222656 23.65625 L 206.886719 19.816406 L 215.0625 19.101563 Z M 218.4375 53.882813 L 209.355469 54.675781 L 206.792969 25.398438 L 215.878906 24.605469 "/>
<path style=" stroke:none;fill-rule:evenodd;fill:rgb(13.719177%,12.156677%,12.547302%);fill-opacity:1;" d="M 250.355469 24.460938 L 240.085938 53.714844 L 229.894531 53.359375 L 222.105469 23.472656 L 231.300781 23.796875 L 235.519531 41.902344 L 235.605469 41.90625 L 240.996094 24.132813 "/>
<path style=" stroke:none;fill-rule:evenodd;fill:rgb(13.719177%,12.156677%,12.547302%);fill-opacity:1;" d="M 276.789063 59.359375 L 252.292969 54.597656 L 257.941406 25.546875 L 281.988281 30.222656 L 280.542969 37.667969 L 265.445313 34.734375 L 264.742188 38.355469 L 278.453125 41.019531 L 277.109375 47.9375 L 263.398438 45.273438 L 262.691406 48.894531 L 278.238281 51.914063 "/>
<path style=" stroke:none;fill-rule:evenodd;fill:rgb(13.719177%,12.156677%,12.547302%);fill-opacity:1;" d="M 308.308594 71.234375 L 299.792969 67.96875 C 299.878906 67.054688 300.078125 65.945313 300.402344 64.648438 C 300.695313 63.578125 300.992188 62.496094 301.296875 61.394531 C 301.828125 58.996094 301.054688 57.394531 298.964844 56.59375 L 294.4375 54.855469 L 290.738281 64.492188 L 282.222656 61.222656 L 292.828125 33.59375 L 309.046875 39.816406 C 311.625 40.808594 313.480469 42.289063 314.621094 44.265625 C 315.84375 46.394531 315.980469 48.695313 315.03125 51.171875 C 314.4375 52.722656 313.574219 53.972656 312.4375 54.925781 C 311.164063 56.007813 309.761719 56.535156 308.230469 56.511719 C 310.257813 58.324219 310.730469 61.140625 309.652344 64.960938 C 309.308594 66.011719 308.878906 67.621094 308.371094 69.796875 C 308.265625 70.378906 308.246094 70.855469 308.308594 71.234375 M 305.96875 49.335938 C 306.671875 47.503906 305.617188 46.050781 302.804688 44.96875 L 298.820313 43.441406 L 296.710938 48.9375 L 301.160156 50.644531 C 302.835938 51.285156 304.136719 51.296875 305.054688 50.671875 C 305.425781 50.402344 305.730469 49.957031 305.96875 49.335938 "/>
<path style=" stroke:none;fill-rule:evenodd;fill:rgb(13.719177%,12.156677%,12.547302%);fill-opacity:1;" d="M 338.171875 79.375 C 336.230469 82.363281 333.566406 83.796875 330.1875 83.679688 C 327.332031 83.605469 324.320313 82.539063 321.144531 80.476563 C 318.871094 79 317.027344 77.09375 315.613281 74.757813 C 314.441406 72.8125 314.0625 70.652344 314.476563 68.289063 C 314.679688 67.066406 315.195313 65.789063 316.027344 64.453125 L 323.679688 69.417969 C 322.578125 71.109375 322.5 72.527344 323.441406 73.664063 C 324.011719 74.363281 324.652344 74.945313 325.371094 75.410156 C 327.480469 76.78125 329.023438 76.714844 330.003906 75.207031 C 330.394531 74.605469 330.351563 73.882813 329.871094 73.046875 C 329.449219 72.378906 328.328125 70.988281 326.5 68.878906 C 325.179688 67.363281 324.394531 66.441406 324.144531 66.113281 C 323.273438 65.019531 322.636719 63.996094 322.230469 63.042969 C 321.171875 60.671875 321.347656 58.398438 322.761719 56.21875 C 324.492188 53.554688 326.878906 52.136719 329.917969 51.972656 C 332.546875 51.832031 335.273438 52.679688 338.101563 54.515625 C 341.066406 56.445313 343.058594 58.578125 344.074219 60.917969 C 345.234375 63.648438 344.941406 66.457031 343.199219 69.34375 L 335.96875 64.648438 C 336.628906 63.890625 336.753906 63.035156 336.351563 62.082031 C 335.996094 61.257813 335.378906 60.558594 334.5 59.988281 C 332.597656 58.753906 331.320313 58.714844 330.667969 59.871094 C 330.21875 60.667969 330.597656 61.785156 331.800781 63.226563 C 332.214844 63.757813 333.246094 64.90625 334.898438 66.675781 C 336.199219 68.078125 337.179688 69.257813 337.839844 70.214844 C 339.957031 73.398438 340.066406 76.453125 338.171875 79.375 "/>
<path style=" stroke:none;fill-rule:evenodd;fill:rgb(13.719177%,12.156677%,12.547302%);fill-opacity:1;" d="M 362.703125 71.585938 L 356.417969 66.308594 L 358.894531 63.355469 L 365.183594 68.632813 Z M 342.976563 95.613281 L 335.988281 89.75 L 354.882813 67.238281 L 361.867188 73.097656 "/>
<path style=" stroke:none;fill-rule:evenodd;fill:rgb(13.719177%,12.156677%,12.547302%);fill-opacity:1;" d="M 380.230469 101.136719 L 374.472656 95.171875 L 358.636719 110.460938 L 352.304688 103.902344 L 368.136719 88.613281 L 362.378906 82.648438 L 367.835938 77.378906 L 385.6875 95.867188 "/>
<path style=" stroke:none;fill-rule:evenodd;fill:rgb(13.719177%,12.156677%,12.547302%);fill-opacity:1;" d="M 381.371094 140.9375 L 367.417969 120.25 L 391.953125 103.699219 L 405.652344 124.007813 L 399.363281 128.25 L 390.765625 115.5 L 387.707031 117.5625 L 395.519531 129.144531 L 389.675781 133.085938 L 381.863281 121.503906 L 378.808594 123.566406 L 387.660156 136.695313 "/>
<path style=" stroke:none;fill-rule:evenodd;fill:rgb(13.719177%,12.156677%,12.547302%);fill-opacity:1;" d="M 403.074219 164.675781 C 399.816406 166.125 396.804688 165.878906 394.03125 163.9375 C 391.679688 162.320313 389.734375 159.78125 388.195313 156.324219 C 387.09375 153.851563 386.585938 151.246094 386.671875 148.519531 C 386.746094 146.246094 387.605469 144.230469 389.242188 142.472656 C 390.074219 141.558594 391.207031 140.769531 392.632813 140.101563 L 396.34375 148.433594 C 394.5 149.253906 393.660156 150.398438 393.832031 151.863281 C 393.929688 152.757813 394.148438 153.597656 394.496094 154.382813 C 395.519531 156.679688 396.851563 157.460938 398.492188 156.730469 C 399.148438 156.4375 399.507813 155.8125 399.5625 154.847656 C 399.574219 154.058594 399.386719 152.28125 399.003906 149.515625 C 398.722656 147.523438 398.5625 146.324219 398.53125 145.914063 C 398.398438 144.523438 398.421875 143.316406 398.601563 142.300781 C 399.003906 139.730469 400.386719 137.921875 402.761719 136.863281 C 405.664063 135.570313 408.4375 135.679688 411.078125 137.199219 C 413.355469 138.511719 415.183594 140.710938 416.554688 143.789063 C 417.992188 147.019531 418.503906 149.894531 418.078125 152.410156 C 417.566406 155.335938 415.789063 157.53125 412.757813 159.003906 L 409.246094 151.128906 C 410.214844 150.847656 410.785156 150.199219 410.96875 149.179688 C 411.117188 148.296875 410.980469 147.375 410.554688 146.414063 C 409.632813 144.34375 408.582031 143.617188 407.402344 144.234375 C 406.59375 144.652344 406.300781 145.796875 406.527344 147.664063 C 406.585938 148.335938 406.824219 149.859375 407.25 152.242188 C 407.574219 154.125 407.753906 155.648438 407.785156 156.8125 C 407.824219 160.636719 406.257813 163.257813 403.074219 164.675781 "/>
<path style=" stroke:none;fill-rule:evenodd;fill:rgb(13.719177%,12.156677%,12.547302%);fill-opacity:1;" d="M 427.960938 170.753906 L 425.425781 162.949219 L 429.089844 161.757813 L 431.628906 169.5625 Z M 398.496094 180.675781 L 395.679688 172.003906 L 423.628906 162.921875 L 426.445313 171.59375 "/>
<path style=" stroke:none;fill-rule:evenodd;fill:rgb(13.719177%,12.156677%,12.547302%);fill-opacity:1;" d="M 194.105469 436.441406 L 185.703125 434.5 L 189.441406 418.304688 L 182.859375 416.785156 L 184.203125 410.96875 C 186.476563 411.550781 188.460938 411.554688 190.15625 410.980469 C 192.097656 410.296875 193.371094 408.902344 193.96875 406.796875 L 200.59375 408.328125 "/>
<path style=" stroke:none;fill-rule:evenodd;fill:rgb(13.719177%,12.156677%,12.547302%);fill-opacity:1;" d="M 234.367188 424.128906 C 234.199219 428.90625 232.992188 432.640625 230.742188 435.324219 C 228.289063 438.226563 224.9375 439.601563 220.683594 439.453125 C 216.210938 439.296875 213.085938 437.75 211.304688 434.8125 C 210.679688 433.796875 210.277344 432.578125 210.105469 431.160156 L 217.6875 431.425781 C 217.972656 432.738281 219.039063 433.421875 220.890625 433.488281 C 222.519531 433.546875 223.816406 432.914063 224.773438 431.59375 C 225.414063 430.703125 225.914063 429.460938 226.273438 427.871094 L 226.191406 427.78125 C 224.398438 429.242188 222.21875 429.925781 219.652344 429.835938 C 216.777344 429.734375 214.484375 428.867188 212.773438 427.234375 C 210.953125 425.511719 210.09375 423.210938 210.191406 420.339844 C 210.308594 416.996094 211.605469 414.375 214.078125 412.46875 C 216.378906 410.699219 219.257813 409.871094 222.707031 409.992188 C 226.714844 410.132813 229.742188 411.621094 231.800781 414.457031 C 233.648438 416.984375 234.503906 420.207031 234.367188 424.128906 M 226.109375 420.6875 C 226.148438 419.527344 225.796875 418.5625 225.050781 417.789063 C 224.304688 416.988281 223.347656 416.566406 222.1875 416.527344 C 221.058594 416.488281 220.050781 416.839844 219.164063 417.585938 C 218.308594 418.328125 217.863281 419.253906 217.824219 420.359375 C 217.785156 421.464844 218.167969 422.402344 218.972656 423.175781 C 219.773438 423.949219 220.726563 424.359375 221.832031 424.398438 C 222.992188 424.4375 223.984375 424.113281 224.8125 423.421875 C 225.636719 422.734375 226.070313 421.820313 226.109375 420.6875 "/>
<path style=" stroke:none;fill-rule:evenodd;fill:rgb(13.719177%,12.156677%,12.547302%);fill-opacity:1;" d="M 262.804688 414.460938 C 258.667969 419.339844 256.574219 425.207031 256.527344 432.0625 C 256.511719 433.984375 256.625 435.792969 256.859375 437.492188 L 247.769531 438.609375 C 247.65625 438.621094 247.621094 437.890625 247.664063 436.40625 C 247.71875 435.035156 247.800781 433.886719 247.90625 432.953125 C 248.429688 428.351563 249.628906 424.277344 251.503906 420.734375 C 251.972656 419.785156 252.75 418.421875 253.839844 416.648438 C 254.078125 416.3125 254.246094 416.082031 254.34375 415.960938 L 254.449219 415.820313 L 240.75 417.503906 L 239.890625 410.507813 L 261.984375 407.792969 "/>
<path style=" stroke:none;fill-rule:evenodd;fill:rgb(13.719177%,12.156677%,12.547302%);fill-opacity:1;" d="M 297.726563 421.707031 L 294 422.84375 L 295.671875 428.3125 L 287.425781 430.835938 L 285.753906 425.367188 L 273.503906 429.109375 L 271.226563 421.65625 L 279.347656 403.136719 L 287.238281 400.726563 L 291.9375 416.105469 L 295.664063 414.96875 Z M 283.695313 418.628906 L 281.328125 410.894531 L 276.953125 420.6875 "/>
<path style=" stroke:none;fill-rule:evenodd;fill:rgb(94.921875%,74.804688%,5.099487%);fill-opacity:1;" d="M 119.554688 194.046875 L 120.777344 194.21875 L 121.996094 194.394531 L 123.042969 194.566406 L 124.089844 195.089844 L 125.136719 195.441406 L 126.179688 196.136719 L 127.054688 196.835938 L 127.925781 197.53125 L 128.621094 198.40625 L 129.320313 199.277344 L 129.84375 200.148438 L 130.367188 201.195313 L 130.714844 202.242188 L 131.0625 203.460938 L 131.238281 204.507813 L 131.238281 206.949219 L 131.0625 207.996094 L 130.714844 209.214844 L 130.367188 210.261719 L 129.84375 211.308594 L 129.320313 212.179688 L 128.621094 213.050781 L 127.925781 213.921875 L 127.054688 214.621094 L 126.179688 215.316406 L 125.136719 216.015625 L 124.089844 216.363281 L 123.042969 216.886719 L 121.996094 217.0625 L 120.777344 217.234375 L 119.554688 217.410156 L 118.511719 217.234375 L 117.289063 217.0625 L 116.242188 216.886719 L 115.195313 216.363281 L 114.152344 216.015625 L 113.105469 215.316406 L 112.230469 214.621094 L 111.359375 213.921875 L 110.664063 213.050781 L 109.964844 212.179688 L 109.441406 211.308594 L 108.921875 210.261719 L 108.570313 209.214844 L 108.222656 207.996094 L 108.046875 206.949219 L 108.046875 204.507813 L 108.222656 203.460938 L 108.570313 202.242188 L 108.921875 201.195313 L 109.441406 200.148438 L 109.964844 199.277344 L 110.664063 198.40625 L 111.359375 197.53125 L 112.230469 196.835938 L 113.105469 196.136719 L 114.152344 195.441406 L 115.195313 195.089844 L 116.242188 194.566406 L 117.289063 194.394531 L 118.511719 194.21875 "/>
<path style=" stroke:none;fill-rule:evenodd;fill:rgb(94.921875%,74.804688%,5.099487%);fill-opacity:1;" d="M 341.695313 194.046875 L 340.472656 194.21875 L 339.253906 194.394531 L 338.207031 194.566406 L 337.160156 195.089844 L 336.113281 195.441406 L 335.070313 196.136719 L 334.195313 196.835938 L 333.324219 197.53125 L 332.628906 198.40625 L 331.929688 199.277344 L 331.40625 200.148438 L 330.882813 201.195313 L 330.535156 202.242188 L 330.1875 203.460938 L 330.011719 204.507813 L 330.011719 206.949219 L 330.1875 207.996094 L 330.535156 209.214844 L 330.882813 210.261719 L 331.40625 211.308594 L 331.929688 212.179688 L 332.628906 213.050781 L 333.324219 213.921875 L 334.195313 214.621094 L 335.070313 215.316406 L 336.113281 216.015625 L 337.160156 216.363281 L 338.207031 216.886719 L 339.253906 217.0625 L 340.472656 217.234375 L 341.695313 217.410156 L 342.742188 217.234375 L 343.964844 217.0625 L 345.007813 216.886719 L 346.054688 216.363281 L 347.097656 216.015625 L 348.144531 215.316406 L 349.015625 214.621094 L 349.890625 213.921875 L 350.589844 213.050781 L 351.285156 212.179688 L 351.808594 211.308594 L 352.332031 210.261719 L 352.679688 209.214844 L 353.027344 207.996094 L 353.203125 206.949219 L 353.203125 204.507813 L 353.027344 203.460938 L 352.679688 202.242188 L 352.332031 201.195313 L 351.808594 200.148438 L 351.285156 199.277344 L 350.589844 198.40625 L 349.890625 197.53125 L 349.015625 196.835938 L 348.144531 196.136719 L 347.097656 195.441406 L 346.054688 195.089844 L 345.007813 194.566406 L 343.964844 194.394531 L 342.742188 194.21875 "/>
<path style=" stroke:none;fill-rule:evenodd;fill:rgb(94.921875%,74.804688%,5.099487%);fill-opacity:1;" d="M 351.808594 224.386719 L 328.09375 224.386719 L 328.09375 298.664063 L 327.570313 301.628906 L 326.699219 304.417969 L 325.828125 307.03125 L 324.605469 309.472656 L 323.386719 311.738281 L 321.816406 313.832031 L 320.246094 315.75 L 318.328125 317.492188 L 316.410156 319.066406 L 314.144531 320.460938 L 311.878906 321.679688 L 309.265625 322.726563 L 306.648438 323.597656 L 303.683594 324.296875 L 300.71875 324.820313 L 297.578125 325.167969 L 163.671875 325.167969 L 160.53125 324.820313 L 157.566406 324.296875 L 154.601563 323.597656 L 151.988281 322.726563 L 149.371094 321.679688 L 147.105469 320.460938 L 144.839844 319.066406 L 142.921875 317.492188 L 141.003906 315.75 L 139.433594 313.832031 L 137.863281 311.738281 L 136.644531 309.472656 L 135.421875 307.03125 L 134.550781 304.417969 L 133.679688 301.628906 L 133.15625 298.664063 L 133.15625 224.386719 L 109.441406 224.386719 L 109.441406 235.019531 L 109.617188 245.65625 L 109.617188 288.375 L 109.789063 299.1875 L 109.789063 309.824219 L 110.839844 313.660156 L 112.058594 317.320313 L 113.453125 320.632813 L 115.023438 323.773438 L 116.941406 326.738281 L 119.03125 329.527344 L 121.300781 332.140625 L 123.742188 334.40625 L 126.355469 336.5 L 129.320313 338.242188 L 132.285156 339.988281 L 135.421875 341.382813 L 138.734375 342.605469 L 142.046875 343.476563 L 145.710938 344.171875 L 149.371094 344.695313 L 230.625 344.171875 L 311.878906 344.695313 L 315.539063 344.171875 L 319.203125 343.476563 L 322.515625 342.605469 L 325.828125 341.382813 L 328.964844 339.988281 L 331.929688 338.242188 L 334.894531 336.5 L 337.511719 334.40625 L 339.953125 332.140625 L 342.21875 329.527344 L 344.3125 326.738281 L 346.230469 323.773438 L 347.796875 320.632813 L 349.191406 317.320313 L 350.414063 313.660156 L 351.460938 309.824219 L 351.460938 288.375 L 351.632813 277.738281 L 351.632813 245.65625 L 351.808594 235.019531 "/>
<path style=" stroke:none;fill-rule:evenodd;fill:rgb(94.921875%,74.804688%,5.099487%);fill-opacity:1;" d="M 207.785156 112.441406 L 208.308594 111.921875 L 209.003906 111.398438 L 209.527344 111.046875 L 210.226563 110.699219 L 210.921875 110.699219 L 211.445313 110.523438 L 212.144531 110.699219 L 212.664063 110.699219 L 213.1875 111.046875 L 213.710938 111.398438 L 214.0625 111.746094 L 214.234375 112.269531 L 214.410156 112.964844 L 214.585938 113.664063 L 214.234375 115.40625 L 213.539063 117.152344 L 213.015625 118.894531 L 212.316406 120.464844 L 211.792969 122.210938 L 212.144531 124.300781 L 212.839844 126.21875 L 213.710938 127.785156 L 214.757813 129.183594 L 216.152344 130.402344 L 217.898438 131.449219 L 219.640625 132.144531 L 221.734375 132.84375 L 238.996094 132.84375 L 240.914063 132.144531 L 242.832031 131.449219 L 244.402344 130.402344 L 245.796875 129.183594 L 247.015625 127.785156 L 247.886719 126.21875 L 248.585938 124.300781 L 248.933594 122.210938 L 248.238281 120.464844 L 247.714844 118.894531 L 247.015625 117.152344 L 246.320313 115.40625 L 246.144531 114.535156 L 246.144531 112.964844 L 246.320313 112.269531 L 246.667969 111.746094 L 247.015625 111.398438 L 247.363281 111.046875 L 247.886719 110.699219 L 248.585938 110.699219 L 249.109375 110.523438 L 249.804688 110.699219 L 250.328125 110.699219 L 251.027344 111.046875 L 251.722656 111.398438 L 252.246094 111.921875 L 252.769531 112.441406 L 253.117188 113.140625 L 253.640625 113.839844 L 253.992188 114.535156 L 254.511719 115.058594 L 255.035156 115.40625 L 255.734375 115.757813 L 256.433594 116.105469 L 257.128906 116.277344 L 260.617188 116.277344 L 262.535156 115.929688 L 264.453125 115.40625 L 268.984375 115.40625 L 271.253906 115.757813 L 273.519531 116.105469 L 275.613281 116.800781 L 277.703125 117.5 L 279.796875 118.195313 L 281.886719 119.070313 L 286.597656 122.554688 L 290.953125 126.21875 L 295.140625 129.703125 L 299.324219 133.539063 L 300.894531 134.761719 L 301.941406 135.808594 L 302.636719 136.855469 L 302.8125 137.378906 L 302.8125 138.421875 L 302.636719 138.773438 L 302.464844 139.296875 L 302.113281 139.644531 L 300.894531 140.339844 L 299.324219 140.863281 L 297.234375 141.039063 L 295.316406 141.386719 L 293.570313 142.085938 L 291.652344 142.78125 L 290.082031 143.652344 L 288.339844 144.699219 L 286.769531 145.921875 L 285.027344 147.140625 L 283.109375 148.363281 L 281.191406 149.058594 L 279.097656 149.585938 L 277.179688 149.757813 L 275.4375 149.757813 L 273.695313 149.585938 L 272.125 149.058594 L 270.730469 148.363281 L 268.984375 148.011719 L 266.371094 148.011719 L 265.324219 148.363281 L 264.453125 148.886719 L 263.753906 149.585938 L 263.230469 150.28125 L 262.882813 151.328125 L 262.882813 153.59375 L 263.058594 154.8125 L 263.578125 156.035156 L 264.105469 157.429688 L 265.847656 160.21875 L 267.066406 161.4375 L 268.460938 162.835938 L 269.859375 164.054688 L 271.253906 164.925781 L 272.648438 165.625 L 274.042969 166.148438 L 275.261719 166.496094 L 276.65625 166.671875 L 277.878906 166.671875 L 279.273438 166.496094 L 280.492188 166.320313 L 281.886719 165.796875 L 283.285156 165.273438 L 286.074219 163.707031 L 289.210938 161.789063 L 291.652344 160.566406 L 294.09375 159.519531 L 296.359375 158.648438 L 298.628906 158.128906 L 300.71875 157.953125 L 302.636719 157.777344 L 304.554688 158.128906 L 306.472656 158.476563 L 308.042969 159.171875 L 309.613281 160.046875 L 311.183594 161.089844 L 312.574219 162.484375 L 313.796875 164.054688 L 314.84375 165.625 L 315.890625 167.542969 L 316.9375 169.632813 L 316.761719 180.445313 L 316.761719 191.257813 L 316.585938 202.066406 L 316.585938 213.050781 L 316.410156 223.859375 L 316.410156 234.671875 L 316.238281 245.480469 L 316.238281 256.988281 L 316.0625 257.511719 L 315.890625 257.863281 L 315.539063 258.035156 L 315.019531 258.035156 L 314.320313 257.863281 L 313.449219 257.511719 L 312.574219 256.988281 L 309.265625 252.804688 L 305.949219 248.796875 L 299.324219 240.773438 L 296.1875 236.589844 L 292.871094 232.578125 L 289.5625 228.570313 L 286.246094 224.558594 L 285.375 223.859375 L 283.632813 223.164063 L 282.761719 223.164063 L 282.0625 222.988281 L 281.367188 223.164063 L 280.84375 223.339844 L 280.320313 223.6875 L 279.972656 224.210938 L 279.621094 224.734375 L 279.273438 225.429688 L 279.097656 226.128906 L 278.925781 227 L 278.925781 228.046875 L 279.097656 229.09375 L 279.273438 230.136719 L 280.144531 234.148438 L 281.191406 238.160156 L 281.886719 240.078125 L 282.585938 241.996094 L 283.457031 243.738281 L 284.328125 245.65625 L 285.550781 247.398438 L 286.769531 249.144531 L 287.992188 250.714844 L 289.5625 252.457031 L 291.304688 254.027344 L 293.222656 255.59375 L 295.316406 257.164063 L 297.582031 258.734375 L 298.800781 259.085938 L 302.636719 259.085938 L 303.859375 258.90625 L 304.90625 258.90625 L 305.949219 259.085938 L 306.996094 259.429688 L 307.867188 259.953125 L 308.742188 260.476563 L 309.613281 261.003906 L 310.308594 261.699219 L 311.183594 262.570313 L 311.878906 263.617188 L 312.402344 264.3125 L 312.574219 265.1875 L 312.75 265.710938 L 312.574219 266.230469 L 312.402344 266.753906 L 311.878906 267.105469 L 311.355469 267.277344 L 310.484375 267.453125 L 308.566406 267.453125 L 305.949219 266.929688 L 302.8125 266.058594 L 301.070313 265.710938 L 299.5 265.535156 L 298.105469 265.359375 L 296.710938 265.535156 L 295.488281 265.710938 L 294.441406 265.882813 L 293.398438 266.230469 L 292.351563 266.753906 L 291.480469 267.277344 L 290.78125 267.976563 L 290.082031 268.671875 L 289.386719 269.371094 L 288.339844 270.9375 L 287.644531 272.507813 L 286.769531 275.125 L 286.074219 277.914063 L 285.375 280.527344 L 284.679688 283.144531 L 284.503906 283.84375 L 284.15625 284.363281 L 283.808594 284.886719 L 283.457031 285.238281 L 282.585938 285.585938 L 281.539063 285.761719 L 280.492188 285.585938 L 279.621094 285.238281 L 278.75 284.539063 L 278.226563 283.496094 L 277.355469 280.878906 L 276.65625 278.261719 L 276.484375 275.820313 L 276.308594 273.554688 L 276.484375 271.464844 L 276.65625 269.195313 L 277.007813 267.277344 L 277.53125 265.1875 L 277.53125 261.871094 L 277.007813 260.304688 L 276.484375 259.085938 L 275.613281 258.035156 L 274.738281 256.988281 L 273.695313 256.292969 L 272.472656 255.769531 L 271.253906 255.246094 L 269.859375 255.070313 L 267.242188 255.070313 L 266.023438 255.421875 L 264.800781 255.945313 L 263.578125 256.640625 L 262.535156 257.511719 L 259.917969 260.476563 L 257.304688 263.441406 L 254.6875 266.40625 L 252.074219 269.371094 L 251.375 270.066406 L 250.851563 270.765625 L 250.503906 271.464844 L 250.15625 272.160156 L 249.980469 272.855469 L 249.980469 274.949219 L 250.503906 276.519531 L 251.375 278.089844 L 252.597656 279.832031 L 253.992188 281.75 L 259.222656 287.328125 L 264.625 292.734375 L 270.378906 297.964844 L 276.308594 303.023438 L 277.703125 304.066406 L 279.097656 304.765625 L 280.320313 305.464844 L 281.539063 305.984375 L 282.933594 306.507813 L 284.15625 306.859375 L 285.375 307.03125 L 286.597656 307.207031 L 287.816406 307.207031 L 289.035156 307.03125 L 290.257813 306.859375 L 291.304688 306.683594 L 293.746094 305.984375 L 296.359375 304.941406 L 298.453125 303.195313 L 300.894531 301.628906 L 302.988281 299.882813 L 305.078125 298.140625 L 305.777344 296.921875 L 306.300781 295.875 L 306.648438 294.828125 L 306.648438 292.5625 L 306.472656 291.515625 L 306.125 290.46875 L 305.601563 289.421875 L 301.417969 287.15625 L 297.582031 285.410156 L 296.882813 284.886719 L 295.835938 283.496094 L 295.664063 282.621094 L 295.664063 281.578125 L 295.835938 280.355469 L 296.1875 278.960938 L 296.882813 277.390625 L 297.929688 276.519531 L 298.800781 275.820313 L 299.847656 275.296875 L 301.941406 274.601563 L 305.078125 274.601563 L 307.171875 275.296875 L 308.21875 275.648438 L 309.089844 276.34375 L 311.007813 277.566406 L 312.75 279.132813 L 314.320313 281.050781 L 315.714844 282.96875 L 316.761719 285.0625 L 317.632813 287.15625 L 317.808594 288.378906 L 317.980469 289.421875 L 318.15625 290.296875 L 318.15625 291.339844 L 317.980469 292.386719 L 317.285156 294.128906 L 316.9375 295.003906 L 315.367188 297.441406 L 313.621094 299.710938 L 311.703125 301.976563 L 309.613281 304.066406 L 307.347656 306.160156 L 305.078125 308.078125 L 302.636719 309.996094 L 300.023438 311.738281 L 297.582031 312.960938 L 294.617188 313.835938 L 291.652344 314.355469 L 288.339844 314.703125 L 285.199219 314.703125 L 283.632813 314.53125 L 282.238281 314.355469 L 280.667969 314.007813 L 279.449219 313.660156 L 278.054688 313.136719 L 277.007813 312.4375 L 271.425781 308.601563 L 266.371094 304.765625 L 261.660156 300.757813 L 257.128906 296.570313 L 252.945313 292.386719 L 249.109375 288.027344 L 245.445313 283.84375 L 241.960938 279.308594 L 240.566406 278.609375 L 239.34375 278.089844 L 238.820313 277.914063 L 238.296875 277.914063 L 237.949219 278.089844 L 237.601563 278.261719 L 237.425781 278.609375 L 237.25 278.960938 L 237.078125 279.308594 L 237.078125 280.007813 L 237.25 281.402344 L 237.601563 283.144531 L 240.214844 286.460938 L 242.65625 289.597656 L 245.097656 292.910156 L 247.714844 296.222656 L 250.15625 299.535156 L 252.597656 302.671875 L 255.210938 305.984375 L 257.652344 309.300781 L 258.351563 310.34375 L 258.871094 311.394531 L 259.222656 312.261719 L 259.222656 313.136719 L 259.046875 314.007813 L 258.871094 314.703125 L 258.351563 315.226563 L 257.652344 315.753906 L 256.953125 316.097656 L 256.257813 316.449219 L 255.386719 316.449219 L 254.339844 316.273438 L 253.46875 315.925781 L 252.421875 315.402344 L 251.550781 314.703125 L 250.679688 313.835938 L 247.191406 309.125 L 243.878906 304.765625 L 240.566406 300.230469 L 237.078125 295.523438 L 236.554688 295.003906 L 236.03125 294.480469 L 235.507813 294.128906 L 234.984375 293.957031 L 234.460938 294.128906 L 234.113281 294.304688 L 233.765625 294.828125 L 233.765625 295.523438 L 233.9375 299.359375 L 233.9375 311.566406 L 233.765625 312.4375 L 233.414063 313.308594 L 232.890625 314.007813 L 232.367188 314.53125 L 231.671875 315.054688 L 230.972656 315.402344 L 230.277344 315.578125 L 229.578125 315.402344 L 228.882813 315.054688 L 228.183594 314.53125 L 227.660156 314.007813 L 227.3125 313.308594 L 226.964844 312.4375 L 226.789063 311.566406 L 226.617188 310.519531 L 226.789063 306.859375 L 226.617188 303.023438 L 226.789063 299.359375 L 226.964844 295.523438 L 226.789063 294.828125 L 226.617188 294.304688 L 226.265625 294.128906 L 225.742188 293.957031 L 225.222656 294.128906 L 224.699219 294.480469 L 224 295.003906 L 223.652344 295.523438 L 220.164063 300.230469 L 216.851563 304.765625 L 213.539063 309.125 L 210.050781 313.835938 L 209.003906 314.703125 L 208.132813 315.402344 L 207.261719 315.925781 L 206.214844 316.273438 L 205.34375 316.449219 L 204.472656 316.449219 L 203.597656 316.097656 L 202.902344 315.753906 L 202.378906 315.226563 L 201.855469 314.703125 L 201.507813 314.007813 L 201.332031 313.136719 L 201.507813 312.261719 L 201.679688 311.394531 L 202.203125 310.34375 L 203.074219 309.300781 L 205.515625 305.984375 L 207.957031 302.671875 L 210.574219 299.535156 L 217.898438 289.597656 L 220.511719 286.460938 L 222.953125 283.144531 L 223.476563 281.402344 L 223.476563 278.960938 L 223.304688 278.609375 L 222.953125 278.261719 L 222.78125 278.089844 L 222.257813 277.914063 L 221.90625 277.914063 L 221.386719 278.089844 L 220.164063 278.609375 L 218.59375 279.308594 L 215.105469 283.84375 L 211.445313 288.027344 L 207.609375 292.386719 L 203.425781 296.570313 L 199.066406 300.757813 L 194.359375 304.765625 L 189.128906 308.601563 L 183.722656 312.4375 L 182.5 313.136719 L 181.28125 313.660156 L 178.492188 314.355469 L 176.921875 314.53125 L 175.351563 314.703125 L 172.214844 314.703125 L 169.074219 314.355469 L 165.9375 313.835938 L 163.148438 312.960938 L 160.53125 311.738281 L 158.089844 309.996094 L 153.207031 306.160156 L 150.941406 304.066406 L 149.023438 301.976563 L 147.105469 299.710938 L 145.363281 297.441406 L 143.792969 295.003906 L 143.269531 294.128906 L 142.921875 293.257813 L 142.746094 292.386719 L 142.570313 291.339844 L 142.570313 289.421875 L 142.746094 288.378906 L 143.09375 287.15625 L 143.792969 285.0625 L 144.839844 282.96875 L 146.234375 281.050781 L 147.804688 279.132813 L 149.546875 277.566406 L 151.464844 276.34375 L 152.511719 275.648438 L 153.558594 275.296875 L 154.429688 274.949219 L 155.476563 274.601563 L 158.613281 274.601563 L 160.707031 275.296875 L 161.753906 275.820313 L 162.796875 276.519531 L 163.671875 277.390625 L 164.367188 278.960938 L 164.890625 280.355469 L 165.066406 281.578125 L 164.890625 282.621094 L 164.714844 283.496094 L 164.367188 284.191406 L 163.671875 284.886719 L 162.972656 285.410156 L 159.3125 287.15625 L 154.953125 289.421875 L 154.429688 290.46875 L 154.078125 291.515625 L 153.90625 292.5625 L 153.90625 293.78125 L 154.078125 294.828125 L 154.429688 295.875 L 154.953125 296.921875 L 155.648438 298.140625 L 157.566406 299.882813 L 159.835938 301.628906 L 162.101563 303.195313 L 164.367188 304.941406 L 166.808594 305.984375 L 169.25 306.683594 L 170.46875 306.859375 L 171.691406 307.03125 L 172.910156 307.207031 L 174.132813 307.207031 L 175.351563 307.03125 L 176.574219 306.859375 L 177.792969 306.507813 L 179.015625 305.984375 L 180.234375 305.464844 L 181.628906 304.765625 L 182.851563 304.066406 L 184.246094 303.023438 L 190.347656 297.964844 L 196.101563 292.734375 L 201.507813 287.328125 L 206.738281 281.75 L 208.132813 279.832031 L 209.179688 278.089844 L 210.050781 276.519531 L 210.574219 274.949219 L 210.746094 274.253906 L 210.746094 273.554688 L 210.574219 272.855469 L 210.398438 272.160156 L 210.226563 271.464844 L 209.875 270.765625 L 209.351563 270.066406 L 208.65625 269.371094 L 206.039063 266.40625 L 203.25 263.441406 L 200.636719 260.476563 L 198.019531 257.511719 L 196.972656 256.640625 L 195.929688 255.945313 L 194.707031 255.421875 L 193.3125 255.070313 L 190.695313 255.070313 L 189.476563 255.246094 L 188.082031 255.769531 L 187.035156 256.292969 L 185.8125 256.988281 L 184.941406 258.035156 L 184.246094 259.085938 L 183.546875 260.304688 L 183.199219 261.871094 L 183.023438 263.441406 L 183.199219 265.1875 L 183.546875 267.277344 L 183.894531 269.195313 L 184.246094 271.464844 L 184.246094 275.820313 L 183.894531 278.261719 L 183.371094 280.878906 L 182.5 283.496094 L 181.804688 284.539063 L 181.105469 285.238281 L 180.058594 285.585938 L 179.1875 285.761719 L 178.140625 285.585938 L 177.097656 285.238281 L 176.746094 284.886719 L 176.398438 284.363281 L 176.222656 283.84375 L 175.875 283.144531 L 175.179688 280.527344 L 174.480469 277.914063 L 173.785156 275.125 L 173.085938 272.507813 L 172.214844 270.9375 L 171.167969 269.371094 L 170.644531 268.671875 L 169.949219 267.976563 L 169.074219 267.277344 L 167.332031 266.230469 L 166.285156 265.882813 L 165.066406 265.710938 L 163.84375 265.535156 L 162.449219 265.359375 L 161.054688 265.535156 L 159.484375 265.710938 L 157.742188 266.058594 L 154.601563 266.929688 L 151.988281 267.453125 L 150.070313 267.453125 L 149.371094 267.277344 L 148.675781 267.105469 L 148.324219 266.753906 L 147.976563 266.230469 L 147.804688 265.710938 L 147.976563 265.1875 L 148.324219 264.3125 L 148.675781 263.617188 L 149.371094 262.570313 L 150.242188 261.699219 L 150.941406 261.003906 L 151.8125 260.476563 L 152.683594 259.953125 L 153.730469 259.429688 L 154.601563 259.085938 L 155.648438 258.90625 L 156.871094 258.90625 L 158.089844 259.085938 L 161.753906 259.085938 L 163.148438 258.734375 L 165.414063 257.164063 L 167.507813 255.59375 L 169.425781 254.027344 L 170.992188 252.457031 L 172.5625 250.714844 L 173.957031 249.144531 L 175.179688 247.398438 L 176.222656 245.65625 L 177.269531 243.738281 L 177.96875 241.996094 L 178.839844 240.078125 L 179.363281 238.160156 L 180.410156 234.148438 L 181.28125 230.136719 L 181.453125 229.09375 L 181.628906 228.046875 L 181.628906 227 L 181.453125 226.128906 L 181.28125 225.429688 L 181.105469 224.734375 L 180.757813 224.210938 L 180.234375 223.6875 L 179.710938 223.339844 L 179.1875 223.164063 L 178.492188 222.988281 L 177.792969 223.164063 L 177.097656 223.164063 L 176.222656 223.511719 L 175.351563 223.859375 L 174.304688 224.558594 L 170.992188 228.570313 L 167.855469 232.578125 L 164.542969 236.589844 L 161.230469 240.773438 L 157.914063 244.785156 L 154.601563 248.796875 L 151.464844 252.804688 L 148.152344 256.988281 L 147.105469 257.511719 L 146.410156 257.863281 L 145.710938 258.035156 L 145.1875 258.035156 L 144.664063 257.863281 L 144.488281 257.511719 L 144.316406 256.988281 L 144.316406 234.671875 L 144.140625 223.859375 L 144.140625 213.050781 L 143.96875 202.066406 L 143.96875 191.257813 L 143.792969 180.445313 L 143.792969 169.632813 L 144.664063 167.542969 L 145.710938 165.625 L 146.929688 164.054688 L 148.152344 162.484375 L 149.546875 161.089844 L 150.941406 160.046875 L 152.511719 159.171875 L 154.253906 158.476563 L 155.996094 158.128906 L 157.914063 157.777344 L 159.835938 157.953125 L 162.101563 158.128906 L 164.191406 158.648438 L 166.460938 159.519531 L 168.902344 160.566406 L 171.34375 161.789063 L 174.480469 163.707031 L 177.445313 165.273438 L 178.839844 165.796875 L 180.058594 166.320313 L 181.453125 166.496094 L 182.675781 166.671875 L 184.070313 166.671875 L 185.289063 166.496094 L 186.6875 166.148438 L 187.90625 165.625 L 189.300781 164.925781 L 190.695313 164.054688 L 192.089844 162.835938 L 193.660156 161.4375 L 194.707031 160.21875 L 195.753906 158.824219 L 196.449219 157.429688 L 197.148438 156.035156 L 197.496094 154.8125 L 197.84375 153.59375 L 197.84375 152.371094 L 197.671875 151.328125 L 197.324219 150.28125 L 196.972656 149.585938 L 196.277344 148.886719 L 195.40625 148.363281 L 194.359375 148.011719 L 191.566406 148.011719 L 189.824219 148.363281 L 188.605469 149.058594 L 187.035156 149.585938 L 185.289063 149.757813 L 183.371094 149.757813 L 181.453125 149.585938 L 179.535156 149.058594 L 177.617188 148.363281 L 175.527344 147.140625 L 173.957031 145.921875 L 172.214844 144.699219 L 170.644531 143.652344 L 168.902344 142.78125 L 167.15625 142.085938 L 165.238281 141.386719 L 163.320313 141.039063 L 161.230469 140.863281 L 159.660156 140.339844 L 158.613281 139.644531 L 158.265625 139.296875 L 157.914063 138.773438 L 157.742188 138.421875 L 157.742188 137.378906 L 157.914063 136.855469 L 158.265625 136.332031 L 158.613281 135.808594 L 159.660156 134.761719 L 161.230469 133.539063 L 165.414063 129.703125 L 169.597656 126.21875 L 174.132813 122.554688 L 178.664063 119.070313 L 180.757813 118.195313 L 182.851563 117.5 L 184.941406 116.800781 L 187.210938 116.105469 L 189.300781 115.757813 L 191.566406 115.40625 L 196.101563 115.40625 L 198.195313 115.929688 L 200.113281 116.277344 L 203.425781 116.277344 L 204.121094 116.105469 L 204.820313 115.757813 L 205.515625 115.40625 L 206.039063 115.058594 L 206.5625 114.535156 L 207.085938 113.839844 L 207.433594 113.140625 "/>
<path style=" stroke:none;fill-rule:evenodd;fill:rgb(0%,0%,0%);fill-opacity:1;" d="M 230.800781 217.585938 L 231.671875 217.585938 L 232.542969 217.933594 L 233.242188 218.28125 L 233.9375 218.804688 L 234.460938 219.503906 L 234.8125 220.199219 L 235.160156 220.898438 L 235.160156 222.640625 L 234.8125 223.511719 L 234.460938 224.210938 L 233.9375 224.90625 L 233.242188 225.429688 L 232.542969 225.777344 L 231.671875 226.128906 L 229.929688 226.128906 L 229.230469 225.777344 L 228.359375 225.429688 L 227.835938 224.90625 L 227.3125 224.210938 L 226.789063 223.511719 L 226.613281 222.640625 L 226.613281 220.898438 L 226.789063 220.199219 L 227.3125 219.503906 L 227.835938 218.804688 L 228.359375 218.28125 L 229.230469 217.933594 L 229.929688 217.585938 L 230.800781 217.585938 M 195.753906 125.695313 L 197.148438 125.871094 L 198.367188 126.21875 L 199.414063 126.914063 L 200.460938 127.613281 L 201.332031 128.660156 L 201.855469 129.878906 L 202.378906 131.101563 L 202.378906 133.890625 L 201.855469 135.109375 L 201.332031 136.332031 L 200.460938 137.203125 L 199.414063 138.074219 L 198.367188 138.773438 L 197.148438 139.121094 L 195.753906 139.296875 L 194.359375 139.121094 L 193.136719 138.773438 L 191.917969 138.074219 L 190.871094 137.203125 L 190.171875 136.332031 L 189.476563 135.109375 L 189.128906 133.890625 L 188.953125 132.496094 L 189.128906 131.101563 L 189.476563 129.878906 L 190.171875 128.660156 L 190.871094 127.613281 L 191.917969 126.914063 L 193.136719 126.21875 L 194.359375 125.871094 L 195.753906 125.695313 M 152.859375 250.886719 L 152.683594 242.34375 L 152.683594 233.800781 L 152.511719 225.257813 L 152.511719 216.886719 L 152.335938 208.34375 L 152.335938 191.253906 L 152.160156 182.710938 L 152.160156 181.492188 L 152.335938 180.269531 L 152.683594 179.226563 L 153.035156 178.179688 L 153.558594 177.308594 L 154.078125 176.433594 L 154.777344 175.738281 L 156.171875 174.34375 L 157.042969 173.820313 L 157.742188 173.46875 L 158.789063 173.121094 L 160.53125 172.597656 L 162.625 172.425781 L 164.542969 172.597656 L 166.460938 172.949219 L 168.203125 173.644531 L 169.945313 174.691406 L 170.644531 175.386719 L 171.34375 176.085938 L 171.863281 176.785156 L 172.386719 177.65625 L 172.738281 178.527344 L 173.433594 180.621094 L 173.433594 213.921875 L 173.261719 218.457031 L 173.261719 219.152344 L 173.433594 219.851563 L 173.609375 220.375 L 173.957031 220.898438 L 174.304688 221.246094 L 174.65625 221.59375 L 175.179688 221.769531 L 175.527344 221.941406 L 176.574219 221.941406 L 177.097656 221.769531 L 177.617188 221.421875 L 177.96875 221.070313 L 178.664063 220.023438 L 178.839844 219.152344 L 179.015625 212.878906 L 179.015625 206.425781 L 179.1875 200.148438 L 179.1875 193.871094 L 179.363281 192.824219 L 179.535156 191.953125 L 179.886719 191.253906 L 180.234375 190.558594 L 180.757813 190.035156 L 181.453125 189.6875 L 181.976563 189.511719 L 182.675781 189.335938 L 183.371094 189.335938 L 184.070313 189.511719 L 184.769531 189.859375 L 185.289063 190.210938 L 185.8125 190.90625 L 186.335938 191.605469 L 186.6875 192.476563 L 186.859375 193.347656 L 186.859375 221.59375 L 186.6875 222.988281 L 186.511719 224.210938 L 186.164063 225.257813 L 185.640625 226.300781 L 184.941406 227 L 184.070313 227.699219 L 183.023438 228.046875 L 181.628906 228.21875 L 181.453125 226.476563 L 181.105469 225.082031 L 180.933594 224.558594 L 180.582031 224.035156 L 179.886719 223.339844 L 178.839844 222.988281 L 178.140625 222.988281 L 177.445313 223.164063 L 175.875 223.6875 L 173.957031 224.734375 L 171.863281 227.351563 L 169.773438 229.964844 L 167.855469 232.578125 L 165.761719 235.019531 L 165.761719 215.664063 L 165.9375 209.214844 L 165.9375 183.234375 L 165.761719 182.363281 L 165.589844 181.664063 L 165.238281 181.144531 L 164.714844 180.792969 L 164.367188 180.445313 L 163.84375 180.269531 L 163.320313 180.097656 L 162.796875 180.097656 L 162.273438 180.269531 L 161.753906 180.445313 L 161.402344 180.792969 L 160.878906 181.144531 L 160.53125 181.664063 L 160.355469 182.1875 L 160.007813 182.886719 L 160.007813 198.054688 L 160.183594 205.378906 L 160.183594 212.527344 L 160.355469 219.851563 L 160.355469 227 L 160.53125 234.324219 L 160.53125 241.472656 L 152.859375 250.886719 M 230.800781 165.972656 L 231.671875 165.972656 L 232.542969 166.320313 L 233.242188 166.671875 L 233.9375 167.191406 L 234.460938 167.890625 L 234.8125 168.589844 L 235.160156 169.285156 L 235.160156 171.027344 L 234.8125 171.902344 L 234.460938 172.597656 L 233.9375 173.296875 L 233.242188 173.820313 L 232.542969 174.167969 L 231.671875 174.515625 L 229.929688 174.515625 L 229.230469 174.167969 L 228.359375 173.820313 L 227.835938 173.296875 L 227.3125 172.597656 L 226.789063 171.902344 L 226.613281 171.027344 L 226.613281 169.285156 L 226.789063 168.589844 L 227.835938 167.191406 L 228.359375 166.671875 L 229.230469 166.320313 L 229.929688 165.972656 L 230.800781 165.972656 M 230.800781 183.0625 L 231.671875 183.234375 L 232.542969 183.410156 L 233.242188 183.933594 L 233.9375 184.453125 L 234.460938 184.980469 L 234.8125 185.675781 L 235.160156 186.546875 L 235.160156 188.289063 L 234.8125 189.164063 L 234.460938 189.859375 L 233.9375 190.558594 L 233.242188 191.082031 L 232.542969 191.429688 L 231.671875 191.605469 L 230.800781 191.777344 L 229.929688 191.605469 L 229.230469 191.429688 L 228.359375 191.082031 L 227.835938 190.558594 L 227.3125 189.859375 L 226.789063 189.164063 L 226.613281 188.289063 L 226.613281 186.546875 L 226.789063 185.675781 L 227.3125 184.980469 L 227.835938 184.453125 L 228.359375 183.933594 L 229.230469 183.410156 L 229.929688 183.234375 L 230.800781 183.0625 M 230.800781 200.324219 L 231.671875 200.496094 L 232.542969 200.671875 L 233.242188 201.019531 L 233.9375 201.542969 L 234.460938 202.242188 L 234.8125 202.9375 L 235.160156 203.808594 L 235.160156 205.554688 L 234.8125 206.253906 L 234.460938 207.121094 L 233.9375 207.644531 L 233.242188 208.167969 L 232.542969 208.691406 L 231.671875 208.867188 L 230.800781 209.039063 L 229.929688 208.867188 L 229.230469 208.691406 L 228.359375 208.167969 L 227.3125 207.121094 L 226.789063 206.253906 L 226.613281 205.554688 L 226.613281 203.808594 L 226.789063 202.9375 L 227.3125 202.242188 L 227.835938 201.542969 L 228.359375 201.019531 L 229.230469 200.671875 L 229.929688 200.496094 "/>
<path style=" stroke:none;fill-rule:evenodd;fill:rgb(0%,0%,0%);fill-opacity:1;" d="M 308.390625 251.585938 L 308.566406 243.039063 L 308.566406 234.671875 L 308.742188 226.128906 L 308.742188 217.585938 L 308.914063 209.039063 L 308.914063 200.496094 L 309.089844 192.128906 L 309.089844 182.363281 L 308.914063 181.144531 L 308.21875 179.050781 L 307.171875 177.308594 L 306.648438 176.433594 L 305.949219 175.738281 L 305.078125 175.214844 L 304.378906 174.691406 L 303.507813 174.167969 L 302.636719 173.820313 L 300.71875 173.296875 L 298.800781 173.121094 L 296.710938 173.296875 L 294.789063 173.820313 L 293.046875 174.515625 L 291.480469 175.5625 L 290.605469 176.085938 L 290.082031 176.78125 L 289.386719 177.65625 L 288.863281 178.351563 L 288.515625 179.398438 L 288.164063 180.269531 L 287.992188 181.316406 L 287.816406 182.539063 L 287.816406 205.378906 L 287.992188 210.085938 L 287.992188 220.023438 L 287.816406 220.550781 L 287.644531 221.070313 L 287.46875 221.59375 L 287.121094 221.941406 L 286.597656 222.292969 L 286.246094 222.640625 L 285.726563 222.640625 L 285.203125 222.816406 L 284.679688 222.640625 L 284.15625 222.46875 L 283.808594 222.292969 L 283.285156 221.941406 L 282.933594 221.421875 L 282.585938 220.722656 L 282.410156 220.023438 L 282.410156 213.574219 L 282.238281 207.296875 L 282.0625 201.019531 L 282.0625 194.566406 L 281.886719 193.523438 L 281.714844 192.648438 L 281.367188 191.953125 L 281.015625 191.257813 L 280.492188 190.90625 L 279.796875 190.558594 L 279.273438 190.210938 L 277.878906 190.210938 L 277.179688 190.382813 L 276.484375 190.558594 L 275.4375 191.605469 L 274.914063 192.300781 L 274.738281 193.175781 L 274.390625 194.21875 L 274.390625 222.46875 L 274.5625 223.6875 L 274.738281 224.90625 L 275.089844 226.128906 L 275.613281 227 L 276.308594 227.871094 L 277.179688 228.394531 L 278.226563 228.917969 L 279.796875 228.917969 L 279.796875 227.347656 L 280.144531 225.953125 L 280.320313 225.429688 L 280.667969 224.90625 L 281.015625 224.386719 L 281.367188 224.210938 L 281.886719 223.863281 L 283.808594 223.863281 L 285.375 224.386719 L 287.46875 225.429688 L 289.386719 228.046875 L 291.480469 230.660156 L 293.394531 233.277344 L 295.488281 235.894531 L 295.488281 197.011719 L 295.3125 190.382813 L 295.3125 183.933594 L 295.488281 183.234375 L 295.835938 182.539063 L 296.1875 182.015625 L 296.535156 181.492188 L 296.882813 181.144531 L 297.929688 180.792969 L 298.453125 180.792969 L 298.976563 180.96875 L 299.496094 181.144531 L 299.847656 181.492188 L 300.371094 181.839844 L 300.71875 182.363281 L 301.070313 183.0625 L 301.242188 183.757813 L 301.242188 198.929688 L 301.070313 206.078125 L 301.070313 213.398438 L 300.894531 220.550781 L 300.894531 227.871094 L 300.71875 235.019531 L 300.71875 242.171875 "/>
<path style=" stroke:none;fill-rule:evenodd;fill:rgb(0%,0%,0%);fill-opacity:1;" d="M 263.753906 125.695313 L 265.148438 125.871094 L 266.371094 126.21875 L 267.589844 126.914063 L 268.636719 127.613281 L 269.335938 128.660156 L 270.03125 129.878906 L 270.378906 131.101563 L 270.554688 132.496094 L 270.378906 133.890625 L 270.03125 135.109375 L 269.335938 136.332031 L 268.636719 137.203125 L 267.589844 138.074219 L 266.371094 138.773438 L 265.148438 139.121094 L 263.753906 139.296875 L 262.359375 139.121094 L 261.140625 138.773438 L 260.09375 138.074219 L 259.046875 137.203125 L 258.175781 136.332031 L 257.476563 135.109375 L 257.128906 133.890625 L 256.953125 132.496094 L 257.128906 131.101563 L 257.476563 129.878906 L 258.175781 128.660156 L 259.046875 127.613281 L 260.09375 126.914063 L 261.140625 126.21875 L 262.359375 125.871094 "/>
</g>
</svg>
